{
  "accessors": [
    {
      "bufferView": 2,
      "componentType": 5126,
      "count": 68,
      "max": [
        17.434299468994141,
        -16.356599807739258,
        860.91259765625
      ],
      "min": [
        -17.434299468994141,
        -48.319049835205078,
        845.48870849609375
      ],
      "type": "VEC3"
    },
    {
      "bufferView": 2,
      "byteOffset": 816,
      "componentType": 5126,
      "count": 68,
      "max": [
        0.90551424026489258,
        -0.34656491875648499,
        0.71525281667709351
      ],
      "min": [
        0,
        -0.91582059860229492,
        -0.8956487774848938
      ],
      "type": "VEC3"
    },
    {
      "bufferView": 3,
      "componentType": 5126,
      "count": 68,
      "max": [
        0.86538034677505493,
        0.89296942949295044,
        0.29307717084884644,
        1
      ],
      "min": [
        -0.94135516881942749,
        -0.88419842720031738,
        -0.99879556894302368,
        -1
      ],
      "type": "VEC4"
    },
    {
      "bufferView": 1,
      "componentType": 5126,
      "count": 68,
      "max": [
        0.2269199937582016,
        0.47481000423431396
      ],
      "min": [
        0.18345999717712402,
        0.42987999320030212
      ],
      "type": "VEC2"
    },
    {
      "bufferView": 0,
      "componentType": 5125,
      "count": 216,
      "max": [
        67
      ],
      "min": [
        0
      ],
      "type": "SCALAR"
    },
    {
      "bufferView": 2,
      "byteOffset": 1632,
      "componentType": 5126,
      "count": 86,
      "max": [
        428.97592163085938,
        948.34405517578125,
        786.65985107421875
      ],
      "min": [
        -428.97592163085938,
        -33.866298675537109,
        -1.0672999620437622
      ],
      "type": "VEC3"
    },
    {
      "bufferView": 2,
      "byteOffset": 2664,
      "componentType": 5126,
      "count": 86,
      "max": [
        0.98068910837173462,
        0.31064102053642273,
        0.66708284616470337
      ],
      "min": [
        0.15730398893356323,
        -0.97472578287124634,
        -0.31072202324867249
      ],
      "type": "VEC3"
    },
    {
      "bufferView": 3,
      "byteOffset": 1088,
      "componentType": 5126,
      "count": 86,
      "max": [
        0.93494731187820435,
        0.97573226690292358,
        0.97742742300033569,
        1
      ],
      "min": [
        -0.97660082578659058,
        -0.98300236463546753,
        -0.95679795742034912,
        -1
      ],
      "type": "VEC4"
    },
    {
      "bufferView": 1,
      "byteOffset": 544,
      "componentType": 5126,
      "count": 86,
      "max": [
        0.988319993019104,
        0.98293000459671021
      ],
      "min": [
        0.017030000686645508,
        0.0078800003975629807
      ],
      "type": "VEC2"
    },
    {
      "bufferView": 0,
      "byteOffset": 864,
      "componentType": 5125,
      "count": 330,
      "max": [
        85
      ],
      "min": [
        0
      ],
      "type": "SCALAR"
    },
    {
      "bufferView": 2,
      "byteOffset": 3696,
      "componentType": 5126,
      "count": 1852,
      "max": [
        321.680419921875,
        258.419189453125,
        942.510986328125
      ],
      "min": [
        -321.680419921875,
        -60.791896820068359,
        -1.4644500017166138
      ],
      "type": "VEC3"
    },
    {
      "bufferView": 2,
      "byteOffset": 25920,
      "componentType": 5126,
      "count": 1852,
      "max": [
        0.99983745813369751,
        0.99980789422988892,
        0.93672710657119751
      ],
      "min": [
        -0.99860912561416626,
        -0.99998378753662109,
        -0.99999845027923584
      ],
      "type": "VEC3"
    },
    {
      "bufferView": 3,
      "byteOffset": 2464,
      "componentType": 5126,
      "count": 1852,
      "max": [
        0.99999803304672241,
        0.99999630451202393,
        0.99991154670715332,
        1
      ],
      "min": [
        -0.99961870908737183,
        -0.99999839067459106,
        -0.99878287315368652,
        -1
      ],
      "type": "VEC4"
    },
    {
      "bufferView": 1,
      "byteOffset": 1232,
      "componentType": 5126,
      "count": 1852,
      "max": [
        0.99093002080917358,
        0.98767000436782837
      ],
      "min": [
        0.0069699999876320362,
        0.0075099999085068703
      ],
      "type": "VEC2"
    },
    {
      "bufferView": 0,
      "byteOffset": 2184,
      "componentType": 5125,
      "count": 8232,
      "max": [
        1851
      ],
      "min": [
        0
      ],
      "type": "SCALAR"
    },
    {
      "bufferView": 2,
      "byteOffset": 48144,
      "componentType": 5126,
      "count": 328,
      "max": [
        80.191154479980469,
        62.506145477294922,
        546.719482421875
      ],
      "min": [
        -80.191154479980469,
        -49.682331085205078,
        -4.3764529228210449
      ],
      "type": "VEC3"
    },
    {
      "bufferView": 2,
      "byteOffset": 52080,
      "componentType": 5126,
      "count": 328,
      "max": [
        0.61045986413955688,
        0.96851789951324463,
        0.4925561249256134
      ],
      "min": [
        -0.99621164798736572,
        -0.999900221824646,
        -0.64879882335662842
      ],
      "type": "VEC3"
    },
    {
      "bufferView": 3,
      "byteOffset": 32096,
      "componentType": 5126,
      "count": 328,
      "max": [
        0.99748188257217407,
        0.99503803253173828,
        0.98855018615722656,
        1
      ],
      "min": [
        -0.99843382835388184,
        -0.98731124401092529,
        -0.99975878000259399,
        -1
      ],
      "type": "VEC4"
    },
    {
      "bufferView": 1,
      "byteOffset": 16048,
      "componentType": 5126,
      "count": 328,
      "max": [
        0.49854001402854919,
        -0.32021999359130859
      ],
      "min": [
        0.0045799999497830868,
        -0.99740999937057495
      ],
      "type": "VEC2"
    },
    {
      "bufferView": 0,
      "byteOffset": 35112,
      "componentType": 5125,
      "count": 1218,
      "max": [
        327
      ],
      "min": [
        0
      ],
      "type": "SCALAR"
    },
    {
      "bufferView": 2,
      "byteOffset": 56016,
      "componentType": 5126,
      "count": 36,
      "max": [
        13.001950263977051,
        -22.769500732421875,
        859.93365478515625
      ],
      "min": [
        -13.001950263977051,
        -45.455799102783203,
        845.76043701171875
      ],
      "type": "VEC3"
    },
    {
      "bufferView": 2,
      "byteOffset": 56448,
      "componentType": 5126,
      "count": 36,
      "max": [
        0.61028730869293213,
        -0.15520298480987549,
        0.10548403859138489
      ],
      "min": [
        0,
        -0.99867987632751465,
        -0.95947885513305664
      ],
      "type": "VEC3"
    },
    {
      "bufferView": 3,
      "byteOffset": 37344,
      "componentType": 5126,
      "count": 36,
      "max": [
        0.99031001329421997,
        0.90816217660903931,
        0.99742627143859863,
        1
      ],
      "min": [
        -0.78379923105239868,
        -0.88084399700164795,
        -0.99719029664993286,
        -1
      ],
      "type": "VEC4"
    },
    {
      "bufferView": 1,
      "byteOffset": 18672,
      "componentType": 5126,
      "count": 36,
      "max": [
        0.53760999441146851,
        0.98268002271652222
      ],
      "min": [
        0.41800001263618469,
        0.89556002616882324
      ],
      "type": "VEC2"
    },
    {
      "bufferView": 0,
      "byteOffset": 39984,
      "componentType": 5125,
      "count": 96,
      "max": [
        35
      ],
      "min": [
        0
      ],
      "type": "SCALAR"
    },
    {
      "bufferView": 2,
      "byteOffset": 56880,
      "componentType": 5126,
      "count": 495,
      "max": [
        77.04254150390625,
        94.915596008300781,
        995.1181640625
      ],
      "min": [
        -70.4853515625,
        -77.960990905761719,
        666.158935546875
      ],
      "type": "VEC3"
    },
    {
      "bufferView": 2,
      "byteOffset": 62820,
      "componentType": 5126,
      "count": 495,
      "max": [
        0.99860912561416626,
        0.99980789422988892,
        0.93672710657119751
      ],
      "min": [
        -0.99983745813369751,
        -0.99807947874069214,
        -0.9993937611579895
      ],
      "type": "VEC3"
    },
    {
      "bufferView": 3,
      "byteOffset": 37920,
      "componentType": 5126,
      "count": 495,
      "max": [
        0.99856793880462646,
        0.99948400259017944,
        0.99949967861175537,
        1
      ],
      "min": [
        -0.99989312887191772,
        -0.99619764089584351,
        -0.9989323616027832,
        -1
      ],
      "type": "VEC4"
    },
    {
      "bufferView": 1,
      "byteOffset": 18960,
      "componentType": 5126,
      "count": 495,
      "max": [
        0.99769997596740723,
        1
      ],
      "min": [
        0,
        0.0008800000068731606
      ],
      "type": "VEC2"
    },
    {
      "bufferView": 0,
      "byteOffset": 40368,
      "componentType": 5125,
      "count": 1533,
      "max": [
        494
      ],
      "min": [
        0
      ],
      "type": "SCALAR"
    }
  ],
  "asset": {
    "extras": {
      "author": "DARKKOVA (https://sketchfab.com/darkkova)",
      "license": "CC-BY-4.0 (http://creativecommons.org/licenses/by/4.0/)",
      "source": "https://sketchfab.com/models/2604bbba81074e67b5a95e57c2a0ef8c",
      "title": "Elsa"
    },
    "generator": "Sketchfab-3.18.2",
    "version": "2.0"
  },
  "bufferViews": [
    {
      "buffer": 0,
      "byteLength": 46500,
      "byteOffset": 0,
      "name": "floatBufferViews",
      "target": 34963
    },
    {
      "buffer": 0,
      "byteLength": 22920,
      "byteOffset": 46500,
      "byteStride": 8,
      "name": "floatBufferViews",
      "target": 34962
    },
    {
      "buffer": 0,
      "byteLength": 68760,
      "byteOffset": 69420,
      "byteStride": 12,
      "name": "floatBufferViews",
      "target": 34962
    },
    {
      "buffer": 0,
      "byteLength": 45840,
      "byteOffset": 138180,
      "byteStride": 16,
      "name": "floatBufferViews",
      "target": 34962
    }
  ],
  "buffers": [
    {
      "byteLength": 184020,
      "uri": "scene.bin"
    }
  ],
  "extensionsUsed": [
    "KHR_materials_unlit"
  ],
  "images": [
    {
      "uri": "textures/mat_00_baseColor.png"
    },
    {
      "uri": "textures/Mat_09_baseColor.png"
    },
    {
      "uri": "textures/mat_01_baseColor.png"
    },
    {
      "uri": "textures/mat_10_baseColor.png"
    },
    {
      "uri": "textures/mat_07_baseColor.png"
    },
    {
      "uri": "textures/Mat_06_baseColor.png"
    }
  ],
  "materials": [
    {
      "doubleSided": true,
      "emissiveFactor": [
        0,
        0,
        0
      ],
      "extensions": {
        "KHR_materials_unlit": {}
      },
      "name": "Mat_06",
      "pbrMetallicRoughness": {
        "baseColorFactor": [
          1,
          1,
          1,
          1
        ],
        "baseColorTexture": {
          "index": 5,
          "texCoord": 0
        },
        "metallicFactor": 0,
        "roughnessFactor": 1
      }
    },
    {
      "doubleSided": true,
      "emissiveFactor": [
        0,
        0,
        0
      ],
      "extensions": {
        "KHR_materials_unlit": {}
      },
      "name": "Mat_09",
      "pbrMetallicRoughness": {
        "baseColorFactor": [
          1,
          1,
          1,
          1
        ],
        "baseColorTexture": {
          "index": 1,
          "texCoord": 0
        },
        "metallicFactor": 0,
        "roughnessFactor": 1
      }
    },
    {
      "doubleSided": true,
      "emissiveFactor": [
        0,
        0,
        0
      ],
      "extensions": {
        "KHR_materials_unlit": {}
      },
      "name": "mat_00",
      "pbrMetallicRoughness": {
        "baseColorFactor": [
          1,
          1,
          1,
          1
        ],
        "baseColorTexture": {
          "index": 0,
          "texCoord": 0
        },
        "metallicFactor": 0,
        "roughnessFactor": 1
      }
    },
    {
      "doubleSided": true,
      "emissiveFactor": [
        0,
        0,
        0
      ],
      "extensions": {
        "KHR_materials_unlit": {}
      },
      "name": "mat_01",
      "pbrMetallicRoughness": {
        "baseColorFactor": [
          1,
          1,
          1,
          1
        ],
        "baseColorTexture": {
          "index": 2,
          "texCoord": 0
        },
        "metallicFactor": 0,
        "roughnessFactor": 1
      }
    },
    {
      "doubleSided": true,
      "emissiveFactor": [
        0,
        0,
        0
      ],
      "extensions": {
        "KHR_materials_unlit": {}
      },
      "name": "mat_07",
      "pbrMetallicRoughness": {
        "baseColorFactor": [
          1,
          1,
          1,
          1
        ],
        "baseColorTexture": {
          "index": 4,
          "texCoord": 0
        },
        "metallicFactor": 0,
        "roughnessFactor": 1
      }
    },
    {
      "doubleSided": true,
      "emissiveFactor": [
        0,
        0,
        0
      ],
      "extensions": {
        "KHR_materials_unlit": {}
      },
      "name": "mat_10",
      "pbrMetallicRoughness": {
        "baseColorFactor": [
          1,
          1,
          1,
          1
        ],
        "baseColorTexture": {
          "index": 3,
          "texCoord": 0
        },
        "metallicFactor": 0,
        "roughnessFactor": 1
      }
    }
  ],
  "meshes": [
    {
      "primitives": [
        {
          "attributes": {
            "NORMAL": 1,
            "POSITION": 0,
            "TANGENT": 2,
            "TEXCOORD_0": 3
          },
          "indices": 4,
          "material": 0,
          "mode": 4
        }
      ]
    },
    {
      "primitives": [
        {
          "attributes": {
            "NORMAL": 6,
            "POSITION": 5,
            "TANGENT": 7,
            "TEXCOORD_0": 8
          },
          "indices": 9,
          "material": 1,
          "mode": 4
        }
      ]
    },
    {
      "primitives": [
        {
          "attributes": {
            "NORMAL": 11,
            "POSITION": 10,
            "TANGENT": 12,
            "TEXCOORD_0": 13
          },
          "indices": 14,
          "material": 2,
          "mode": 4
        }
      ]
    },
    {
      "primitives": [
        {
          "attributes": {
            "NORMAL": 16,
            "POSITION": 15,
            "TANGENT": 17,
            "TEXCOORD_0": 18
          },
          "indices": 19,
          "material": 3,
          "mode": 4
        }
      ]
    },
    {
      "primitives": [
        {
          "attributes": {
            "NORMAL": 21,
            "POSITION": 20,
            "TANGENT": 22,
            "TEXCOORD_0": 23
          },
          "indices": 24,
          "material": 4,
          "mode": 4
        }
      ]
    },
    {
      "primitives": [
        {
          "attributes": {
            "NORMAL": 26,
            "POSITION": 25,
            "TANGENT": 27,
            "TEXCOORD_0": 28
          },
          "indices": 29,
          "material": 5,
          "mode": 4
        }
      ]
    }
  ],
  "nodes": [
    {
      "children": [
        1
      ],
      "name": "RootNode (gltf orientation matrix)",
      "rotation": [
        -0.70710678118654746,
        -0,
        -0,
        0.70710678118654757
      ]
    },
    {
      "children": [
        2
      ],
      "name": "RootNode (model correction matrix)"
    },
    {
      "children": [
        3,
        4,
        5,
        6,
        7,
        8
      ],
      "name": "Elsa.obj.cleaner"
    },
    {
      "mesh": 0,
      "name": ""
    },
    {
      "mesh": 1,
      "name": ""
    },
    {
      "mesh": 2,
      "name": ""
    },
    {
      "mesh": 3,
      "name": ""
    },
    {
      "mesh": 4,
      "name": ""
    },
    {
      "mesh": 5,
      "name": ""
    }
  ],
  "samplers": [
    {
      "magFilter": 9729,
      "minFilter": 9987,
      "wrapS": 10497,
      "wrapT": 10497
    }
  ],
  "scene": 0,
  "scenes": [
    {
      "name": "OSG_Scene",
      "nodes": [
        0
      ]
    }
  ],
  "textures": [
    {
      "sampler": 0,
      "source": 0
    },
    {
      "sampler": 0,
      "source": 1
    },
    {
      "sampler": 0,
      "source": 2
    },
    {
      "sampler": 0,
      "source": 3
    },
    {
      "sampler": 0,
      "source": 4
    },
    {
      "sampler": 0,
      "source": 5
    }
  ]
}

